<svg width="18" height="22" viewBox="0 0 18 22" fill="none" xmlns="http://www.w3.org/2000/svg">
<path d="M13.0468 5.31915C13.2561 5.31915 13.613 5.35225 14.1174 5.41844C14.6217 5.48463 15.1737 5.67376 15.7732 5.98582C16.3822 6.28842 16.9342 6.79433 17.429 7.50355C17.4005 7.53191 17.2625 7.63593 17.0151 7.8156C16.7676 7.98582 16.4917 8.24113 16.1872 8.58156C15.8826 8.91253 15.6162 9.33806 15.3878 9.85816C15.1594 10.3688 15.0452 10.9787 15.0452 11.6879C15.0452 12.5012 15.1879 13.1915 15.4734 13.7589C15.7684 14.3262 16.1063 14.7849 16.4869 15.1348C16.8771 15.4752 17.2197 15.7258 17.5147 15.8865C17.8192 16.0473 17.981 16.1324 18 16.1418C17.9905 16.1797 17.8668 16.5154 17.6289 17.1489C17.4005 17.7825 17.0198 18.487 16.4869 19.2624C16.0206 19.9338 15.5163 20.5532 14.9738 21.1206C14.4409 21.6879 13.7986 21.9716 13.0468 21.9716C12.5424 21.9716 12.1285 21.9007 11.8049 21.7589C11.4814 21.6076 11.1483 21.461 10.8057 21.3191C10.4631 21.1678 10.0016 21.0922 9.42109 21.0922C8.85964 21.0922 8.38858 21.1678 8.00793 21.3191C7.6368 21.4704 7.27994 21.6217 6.93735 21.7731C6.60428 21.9243 6.20936 22 5.75258 22C5.05789 22 4.44885 21.7258 3.92546 21.1773C3.40206 20.6288 2.86439 19.9716 2.31245 19.2057C1.67486 18.2979 1.12768 17.1915 0.670896 15.8865C0.223632 14.5721 0 13.2482 0 11.9149C0 10.487 0.271213 9.29078 0.81364 8.32624C1.35607 7.35225 2.05075 6.61939 2.8977 6.12766C3.75416 5.62648 4.63917 5.37589 5.55274 5.37589C6.03806 5.37589 6.49485 5.45626 6.92308 5.61702C7.35131 5.76832 7.75099 5.92435 8.12212 6.08511C8.50278 6.24586 8.84536 6.32624 9.14988 6.32624C9.44489 6.32624 9.78747 6.24113 10.1776 6.07092C10.5678 5.90071 11.0056 5.73522 11.4909 5.57447C11.9762 5.40426 12.4948 5.31915 13.0468 5.31915ZM12.2617 3.51773C11.8906 3.96217 11.4243 4.3357 10.8628 4.6383C10.3013 4.93144 9.76844 5.07801 9.26408 5.07801C9.1594 5.07801 9.05948 5.06856 8.96431 5.04965C8.9548 5.02128 8.94528 4.96927 8.93577 4.89362C8.92625 4.81797 8.92149 4.73759 8.92149 4.65248C8.92149 4.08511 9.0452 3.53664 9.29262 3.00709C9.54005 2.46809 9.82078 2.02364 10.1348 1.67376C10.5345 1.20095 11.0389 0.808511 11.6479 0.496454C12.2569 0.184397 12.8374 0.0189125 13.3894 0C13.4179 0.122931 13.4322 0.269504 13.4322 0.439716C13.4322 1.00709 13.3228 1.56028 13.1039 2.09929C12.885 2.62884 12.6043 3.10165 12.2617 3.51773Z" fill="black"/>
</svg>
