<?xml version="1.0" encoding="UTF-8"?>
<svg id="_레이어_2" data-name="레이어 2" xmlns="http://www.w3.org/2000/svg" viewBox="0 0 12.05 12.05">
  <defs>
    <style>
      .cls-1 {
        fill: #fff;
      }
    </style>
  </defs>
  <g id="_레이어_1-2" data-name="레이어 1">
    <g>
      <circle class="cls-1" cx="6.03" cy="6.03" r="6.03"/>
      <g>
        <path d="m5.42,5.89c.28-.17.47-.48.47-.84,0-.54-.44-.98-.98-.98h-2.09v3.91h2.11c.61,0,1.1-.49,1.1-1.1,0-.47-.21-.81-.61-.99Zm-1.81-1.14h1.08c.24,0,.44.2.44.44s-.2.44-.44.44h-1.08v-.87Zm1.08,2.55h-1.08v-1.03h1.08c.29,0,.52.23.52.52s-.23.52-.52.52Z"/>
        <path d="m7.67,7.45c-.36,0-.65-.29-.65-.65,0-.03,0-.05,0-.08h2.05v-.2c0-.84-.41-1.53-1.42-1.53-.78,0-1.42.52-1.42,1.53s.64,1.53,1.42,1.53,1.34-.43,1.39-.95h0s-.78,0-.78,0c-.08.21-.26.35-.6.35Zm0-1.84c.36,0,.65.27.65.63h-1.3c0-.36.29-.63.65-.63Z"/>
        <rect x="6.76" y="4.29" width="1.7" height=".41"/>
      </g>
    </g>
  </g>
</svg>