<?xml version="1.0" encoding="UTF-8"?>
<svg id="_레이어_2" data-name="레이어 2" xmlns="http://www.w3.org/2000/svg" viewBox="0 0 12.05 12.05">
  <defs>
    <style>
      .cls-1 {
        fill: #fff;
      }
    </style>
  </defs>
  <g>
    <g>
      <circle class="cls-1" cx="6.03" cy="6.03" r="6.03"/>
      <path d="m8.16,2.13c-.26.03-.95.26-2.33,2.64-.85,1.46-1.69,2.9-2.21,3.8-.12-.04-.24-.13-.27-.15,0,0-.02,0-.02,0l-.07.11s0,.01,0,.02c.08.07.19.15.27.19-.27.47-.44.76-.44.76-.04.08-.02.16.06.14.05-.01.31-.12.44-.22.13-.1.14-.19.17-.35.03-.15.14-.21.26-.23.12-.02.84-.03,1.69-.36,1.67-.71,1.88-1.59,1.85-2.03-.02-.44-.53-.71-1.26-.34s-1.31,1.03-1.35,1.08c-.04.05-.07,0-.04-.05.56-1.04,1.51-2,1.69-2.2.19-.19.32-.38.32-.51,0-.13-.05-.24-.05-.24.97-.48,1.35-1.41,1.4-1.56.05-.15.16-.52-.09-.49Zm-2.95,5.06c.78-.74,1.3-.96,1.57-.96.27,0,.28.28.14.68-.14.39-.92,1.57-2.84,1.72-.03,0-.05-.03-.03-.05.11-.18.52-.78,1.16-1.4Zm2.24-3.81c-.3.37-.72.66-.78.71-.06.05-.09.08-.07.18.02.1.09.16-.16.42-.25.26-.4.4-.43.42-.03.02-.06.01-.04-.03,0,0,.44-.78.93-1.44.49-.66.96-1.17,1.02-1.13.04.03-.16.5-.46.87Z"/>
    </g>
  </g>
</svg>
