<svg width="30" height="30" viewBox="0 0 30 30" fill="none" xmlns="http://www.w3.org/2000/svg">
<path fill-rule="evenodd" clip-rule="evenodd" d="M15 30C23.2843 30 30 23.2843 30 15C30 6.71573 23.2843 0 15 0C6.71573 0 0 6.71573 0 15C0 23.2843 6.71573 30 15 30ZM11.8284 7.5H18.1691C20.5602 7.5 22.4988 9.43859 22.5 11.8296V18.1704C22.5 20.5614 20.5614 22.5 18.1704 22.5H11.8296C9.43859 22.5 7.5 20.5614 7.5 18.1704V11.8296C7.5 9.43859 9.43859 7.5 11.8284 7.5ZM18.2441 21.1551C19.8315 21.1551 21.1176 19.869 21.1176 18.2816V11.7934C21.1176 10.206 19.8315 8.91988 18.2441 8.91988H11.7559C10.1685 8.91988 8.88239 10.206 8.88239 11.7934V18.2816C8.88239 19.869 10.1685 21.1551 11.7559 21.1551H18.2441ZM14.9994 11.1446C12.8495 11.1446 11.1072 12.887 11.1072 15.0368C11.1072 17.1866 12.8495 18.929 14.9994 18.929C17.1492 18.929 18.8915 17.1866 18.8915 15.0368C18.8915 12.887 17.1492 11.1446 14.9994 11.1446ZM14.9994 17.5591C13.6057 17.5591 12.4771 16.4292 12.4771 15.0368C12.4771 13.6444 13.607 12.5145 14.9994 12.5145C16.3917 12.5145 17.5216 13.6444 17.5216 15.0368C17.5216 16.4292 16.3917 17.5591 14.9994 17.5591ZM19.9264 10.997C19.9264 11.4975 19.5207 11.9032 19.0202 11.9032C18.5197 11.9032 18.114 11.4975 18.114 10.997C18.114 10.4965 18.5197 10.0908 19.0202 10.0908C19.5207 10.0908 19.9264 10.4965 19.9264 10.997Z" fill="white"/>
</svg>
