<svg width="136" height="24" viewBox="0 0 136 24" fill="none" xmlns="http://www.w3.org/2000/svg">
<path d="M26.6708 12.5072C26.6708 5.89996 20.7336 0.0372237 13.4005 0C13.3819 0 13.2796 0 13.2516 0C5.92788 0.0465297 0 5.90927 0 12.5072C0 20.7057 4.97867 23.9535 13.1679 24C13.2237 24 13.4098 24 13.4471 24C21.6642 23.9721 26.6615 20.7243 26.6615 12.5072H26.6708Z" fill="white"/>
<path d="M34.0413 3.02362H37.8846V20.9655H34.0413V3.02362Z" fill="white"/>
<path d="M53.3791 8.14258V20.9289H49.5358V19.7285C48.8471 20.6777 47.5629 21.2919 45.8692 21.2919C43.2822 21.2919 41.0767 19.4493 41.0767 15.9875V8.14258H44.92V15.4198C44.92 17.0111 45.9157 17.7556 47.1534 17.7556C48.5586 17.7556 49.5358 16.9367 49.5358 15.1127V8.14258H53.3791Z" fill="white"/>
<path d="M55.7798 14.5547C55.7798 10.7392 58.6739 7.78925 62.5731 7.78925C65.0578 7.78925 67.2633 9.09208 68.3707 11.0742L65.0113 13.0192C64.5739 12.1258 63.6526 11.5861 62.5266 11.5861C60.8608 11.5861 59.6324 12.7865 59.6324 14.564C59.6324 16.3414 60.8608 17.5419 62.5266 17.5419C63.6526 17.5419 64.6018 17.0021 65.0113 16.1087L68.3707 18.0351C67.2726 20.0359 65.0857 21.3387 62.5731 21.3387C58.6739 21.3387 55.7798 18.3887 55.7798 14.5733V14.5547Z" fill="white"/>
<path d="M83.9024 8.14286H79.4169L74.6244 12.861V3.0246H70.781V20.9664H74.6244V17.3278L76.2994 15.6714L76.4948 15.4759L76.6065 15.6714L79.6961 20.9664H83.6418L78.9237 13.075L83.9024 8.14286Z" fill="white"/>
<path d="M121.88 3.0246V20.9664H118.037V19.766C117.19 20.7431 115.933 21.3294 114.221 21.3294C110.862 21.3294 108.098 18.3794 108.098 14.564C108.098 10.7485 110.862 7.79854 114.221 7.79854C115.943 7.79854 117.199 8.38481 118.037 9.36194V3.0246H121.88ZM118.037 14.564C118.037 12.6376 116.752 11.4372 114.984 11.4372C113.216 11.4372 111.932 12.6376 111.932 14.564C111.932 16.4903 113.216 17.6907 114.984 17.6907C116.752 17.6907 118.037 16.4903 118.037 14.564Z" fill="white"/>
<path d="M99.4341 8.14286H94.9486L90.1561 12.861V3.0246H86.3127V20.9664H90.1561V17.3278L91.8312 15.6714L92.0266 15.4759L92.1383 15.6714L95.2278 20.9664H99.1735L94.4554 13.075L99.4341 8.14286Z" fill="white"/>
<path d="M130.348 21.3381C126.84 21.3381 124.486 19.3839 124.29 16.834H128.273C128.366 17.7553 129.194 18.3695 130.302 18.3695C131.335 18.3695 131.884 17.8949 131.884 17.3086C131.884 15.1869 124.718 16.7224 124.718 11.8926C124.718 9.64986 126.626 7.81659 130.069 7.81659C133.512 7.81659 135.346 9.70569 135.606 12.2927H131.884C131.763 11.3994 131.083 10.8131 129.948 10.8131C129.008 10.8131 128.487 11.1946 128.487 11.8274C128.487 13.9213 135.606 12.4416 135.671 17.3366C135.671 19.6258 133.643 21.3381 130.348 21.3381Z" fill="white"/>
<path d="M105.669 8.14258H101.826V20.9568H105.669V8.14258Z" fill="white"/>
<path d="M106.013 4.79237C106.013 3.66636 104.999 2.66132 103.752 2.66132C103.752 2.66132 103.733 2.66132 103.724 2.66132C102.477 2.66132 101.463 3.66636 101.463 4.79237C101.463 6.18826 102.31 6.74662 103.715 6.75593C103.715 6.75593 103.752 6.75593 103.761 6.75593C105.167 6.75593 106.013 6.19757 106.013 4.79237Z" fill="white"/>
</svg>
